inDegrees=no
num_controls=7
num_derivatives=13
num_iterations=109
num_multipliers=7
num_parameters=0
num_slacks=7
num_states=26
objective=0.445054
objective_accelerations=0.057263
objective_balance=0.003651
objective_effort=0.023385
objective_height=0.355223
objective_ligament=0.005532
solver_duration=1579.444897
status=Solve_Succeeded
success=true
DataType=double
version=3
OpenSimVersion=4.5
endheader
time	/jointset/ground_pelvis/pelvis_tilt/value	/jointset/ground_pelvis/pelvis_tx/value	/jointset/ground_pelvis/pelvis_ty/value	/jointset/hip_l/hip_flexion_l/value	/jointset/hip_l/hip_adduction_l/value	/jointset/hip_l/hip_rotation_l/value	/jointset/back/lumbar_extension/value	/jointset/patellofemoral_l/patellar_flexion_l/value	/jointset/knee_l/knee_flexion_l/value	/jointset/knee_l/knee_adduction_l/value	/jointset/knee_l/knee_rotation_l/value	/jointset/ankle_l/ankle_angle_l/value	/jointset/subtalar_l/subtalar_angle_l/value	/jointset/ground_pelvis/pelvis_tilt/speed	/jointset/ground_pelvis/pelvis_tx/speed	/jointset/ground_pelvis/pelvis_ty/speed	/jointset/hip_l/hip_flexion_l/speed	/jointset/hip_l/hip_adduction_l/speed	/jointset/hip_l/hip_rotation_l/speed	/jointset/back/lumbar_extension/speed	/jointset/patellofemoral_l/patellar_flexion_l/speed	/jointset/knee_l/knee_flexion_l/speed	/jointset/knee_l/knee_adduction_l/speed	/jointset/knee_l/knee_rotation_l/speed	/jointset/ankle_l/ankle_angle_l/speed	/jointset/subtalar_l/subtalar_angle_l/speed	/forceset/tau_hip_flexion_l	/forceset/tau_hip_adduction_l	/forceset/tau_hip_rotation_l	/forceset/tau_knee_flexion_l	/forceset/tau_ankle_angle_l	/forceset/tau_subtalar_angle_l	/forceset/tau_lumbar_extension	lambda_cid13_p0	lambda_cid13_p1	lambda_cid13_p2	lambda_cid13_p3	lambda_cid13_p4	lambda_cid13_p5	lambda_cid14_p0	/jointset/ground_pelvis/pelvis_tilt/accel	/jointset/ground_pelvis/pelvis_tx/accel	/jointset/ground_pelvis/pelvis_ty/accel	/jointset/hip_l/hip_flexion_l/accel	/jointset/hip_l/hip_adduction_l/accel	/jointset/hip_l/hip_rotation_l/accel	/jointset/back/lumbar_extension/accel	/jointset/patellofemoral_l/patellar_flexion_l/accel	/jointset/knee_l/knee_flexion_l/accel	/jointset/knee_l/knee_adduction_l/accel	/jointset/knee_l/knee_rotation_l/accel	/jointset/ankle_l/ankle_angle_l/accel	/jointset/subtalar_l/subtalar_angle_l/accel	gamma_cid13_p0	gamma_cid13_p1	gamma_cid13_p2	gamma_cid13_p3	gamma_cid13_p4	gamma_cid13_p5	gamma_cid14_p0
0.5	-0.3536914765050773	-0.04401042290969369	0.7588623053677019	1.116177027438574	-0.4360116893642524	-0.223938454594742	-0.2547609676778725	0.7983792470267429	0.7983792470267423	-0.1303179894656732	-0.1581598652478672	0.09461274537240792	-0.03876381094295497	-0.8075727108703642	-0.2290309644990812	-0.53520002047148	2.52335991856446	-0.2061143270678206	0.741978996684898	-0.1137529292411468	1.969215627640588	1.969215627640587	0.1215027232122398	-0.08939043679286576	0.4214744149270606	-0.02188394951506329	-0.1759601002216055	0.01915719482443965	-0.01059492672545598	-0.2128578458760206	0.06888769474723794	0.0465486468782207	0.1717874751967689	-10.6565376428353	-21.40328446716649	6.563714391041968	-6.578713387964124	-522.0796969116518	-63.54679736559159	-25.54989027405979	0.8164648942977624	0.6209331989836342	-0.4607835261670589	-1.37356957894139	0.7292270356288061	-0.1643982931037874	1.116161242788508	-1.239853675938506	-1.239853675938509	0.05147514766983499	0.1882738512680984	-0.4800939324847561	0.5358581073786848	-5.422017770132009e-07	-4.375155871396967e-07	2.698595966987333e-06	1.383904727235311e-07	-6.211852210186814e-07	8.746337077293154e-08	-4.484910974458566e-07
0.51	-0.3617247116592683	-0.04626949181724301	0.753488461994035	1.141337277914446	-0.438037341949845	-0.2165263969680079	-0.2558440524236831	0.8180060568680383	0.8180060568680381	-0.1291040759372865	-0.1590441683616894	0.09880208092326859	-0.03895765937059468	-0.7989857723182402	-0.2227710533815875	-0.5394516551880155	2.508366059783435	-0.1989890694322645	0.7402728380393252	-0.1029197583224223	1.955852135223187	1.955852135223187	0.1213187111881405	-0.08749081105435427	0.4162966682615123	-0.0168956879557649	-0.1812763862998192	0.01965094775303238	-0.01073348189251694	-0.21588105654281	0.06892427447540674	0.04696024610569753	0.1757910127674788	-10.85469504565851	-21.52993003393428	6.564010906075096	-6.530272916655697	-525.7327047379976	-63.24881512235444	-24.6470485646942	0.8930254775024394	0.6303136517853561	-0.3899209590681784	-1.610987898873562	0.7079532121767383	-0.1980506384301183	1.058534256194858	-1.428642405214976	-1.428642405214952	-0.04748728678548284	0.1882432364864929	-0.5510106254502656	0.4785687763404953	-5.07560943139545e-07	-3.532856902982551e-07	2.603811871446317e-06	1.436654771115904e-07	-5.736527259606444e-07	1.511584932305653e-07	-4.249460001268905e-07
0.52	-0.3696694339995715	-0.04846560289688678	0.7480755887702681	1.16633785102827	-0.4399909863421505	-0.2091362661253589	-0.2568204776123503	0.8374904227090448	0.8374904227090449	-0.127890832111008	-0.1599099879578579	0.1029367598891017	-0.03910197346341437	-0.7898701480928081	-0.2164393989179693	-0.5430059904914061	2.491424446154793	-0.1917126884103993	0.7375936398679115	-0.09242101781248041	1.940726827582822	1.940726827582822	0.1213687827906143	-0.08569373326208998	0.4105430979215483	-0.01197708255106331	-0.1865926723780325	0.02014470068162506	-0.01087203705957731	-0.2189042672095999	0.06896085420357552	0.04737184533317426	0.1797945503381887	-11.05650079943925	-21.65694284376373	6.565516971959384	-6.513156877341857	-529.4682657437753	-63.00773638883287	-23.74535509707605	0.9222020289593705	0.6352818682085258	-0.3213236435380535	-1.763120548464647	0.7594517128906192	-0.3590061982716896	1.049275161031983	-1.592216720531185	-1.592216720531186	0.09829187298445104	0.1677642620186632	-0.5952586673678706	0.5219268764593278	-4.94225224497537e-07	-3.40116891770921e-07	2.557602623934095e-06	1.405724526376872e-07	-5.469306522494535e-07	2.059231853124137e-07	-4.20505939884783e-07
0.53	-0.3775200997562809	-0.05059800780994583	0.7426306403855524	1.191159261097692	-0.4418713638502579	-0.2017771590403287	-0.2576935410126899	0.8568154151636438	0.856815415163644	-0.1266763697395563	-0.1607582288390657	0.1070114678640211	-0.03919751524396337	-0.7801388288680081	-0.210026219154011	-0.5458674378108646	2.472514118778095	-0.1843630791108347	0.7341329993528628	-0.08225364828235386	1.92403651023773	1.92403651023773	0.1215068911147428	-0.08395515486341071	0.4043427467068649	-0.007152022028628293	-0.1922302186695653	0.02068116591338057	-0.01091604223025167	-0.221390789390636	0.06847318994915191	0.04768819389528937	0.1840300099370202	-11.41818252908664	-21.70976252119447	6.549672867736279	-6.405718071015325	-533.1009681254752	-62.61958382852471	-22.84619675268948	1.017160395272725	0.6466685010304828	-0.2512245589832445	-2.006579195656186	0.7223921495686384	-0.3541650415837399	0.9911699449663545	-1.742628571626659	-1.742628571626629	-0.03091881668897257	0.1773130002409989	-0.6407762386794592	0.4594412080393814	-4.802998721636687e-07	-2.845533408775779e-07	2.551767909518009e-06	1.534561242893832e-07	-5.2586927152804e-07	2.662588458008084e-07	-4.128703664364328e-07
0.54	-0.3852697396155358	-0.05266581443125708	0.7371605436710755	1.215781249820671	-0.4436783099431539	-0.1944555727731415	-0.2584667902985356	0.8759664665787662	0.8759664665787665	-0.1254610241106266	-0.1615890022619971	0.1110225017487616	-0.03924547730570725	-0.7696649686019116	-0.203519740568408	-0.5480356564436617	2.451540176866044	-0.1770264053680999	0.7300894762993227	-0.0724581949136929	1.905938619687504	1.905938619687504	0.1215454342862306	-0.08220024160679382	0.3978082798857472	-0.002461138790041527	-0.1978677649610982	0.02121763114513608	-0.01096004740092615	-0.2238773115716721	0.06798552569472832	0.04800454245740449	0.1882654695358515	-11.78431453036606	-21.76253045013426	6.534653038261732	-6.324611396871981	-536.8271861275849	-62.28953653907201	-21.95139849151368	1.070710237218663	0.6539416325374724	-0.1826779062058129	-2.175843455535265	0.7568646015246562	-0.4755827059699472	0.974891928738863	-1.873731361557774	-1.873731361557773	0.07837884245633105	0.1710312336061916	-0.6620817886546029	0.4950914196896778	-4.657221591494445e-07	-1.820849575792882e-07	2.590602891293391e-06	1.840161405906784e-07	-5.110707851782951e-07	3.327581309092119e-07	-4.016993315684098e-07
